# xmcd
#
# Track frame offsets:
#	150
#	20822
#	40562
#	60032
#	73892
#	98012
#	119097
#	141325
#	163625
#
# Disc length: 2425 seconds
#
# Revision: 1
# Processed by: cddbd v1.5PL3 Copyright (c) Steve Scherf et al.
# Submitted via: CDex 1.50Beta5
#
DISCID=79097709
DTITLE=サーカス - FASCINATION
DYEAR=1989
DGENRE=Pop
TTITLE0=FASCINATION
TTITLE1=コントラスト
TTITLE2=情景
TTITLE3=BREAKING UP IS HARD TO DO
TTITLE4=藍色の時間
TTITLE5=SLIT SHOT
TTITLE6=YOU ARE SO BEAUTIFUL TO ME
TTITLE7=ミスター・サマー・タイム
TTITLE8=未来伝説
EXTD=
EXTT0=
EXTT1=
EXTT2=
EXTT3=
EXTT4=
EXTT5=
EXTT6=
EXTT7=
EXTT8=
PLAYORDER=
